# xmcd
#
# Track frame offsets:
#	200
#	25822
#	45997
#	63120
#	86697
#	104120
#	119145
#	133357
#	156420
#	169220
#	201547
#	215660
#	232460
#	245370
#	266732
#	283450
#	303860
#
# Disc length: 4417 seconds
#
# Revision: 1
# Processed by: cddbd v1.5.2PL0 Copyright (c) Steve Scherf et al.
# Submitted via: audiograbber 1.83.01
#
DISCID=16113f11
DTITLE=Various Artist - Don't Worry Sing the Blues
DYEAR=1998
DGENRE=Blues
TTITLE0=Willie Murphy - Pocketfull of Money
TTITLE1=Lamont Cranston - Play the Blues
TTITLE2=Hoopsnakes - It Ain't Easy Bein' Me
TTITLE3=James Solberg Band - See that my grave is kept clean
TTITLE4=Lynwood Slim - Tried to Call You
TTITLE5=James Solberg Band - Do you call that a buddy?
TTITLE6=Jimmy Rogers - Slick Chick
TTITLE7=Hubert Sumlin - Feed Me
TTITLE8=R.J. Mischo and The Teddy Morgan Blues Band - She's Murder
TTITLE9=Larry McCray and The Bluegills - The Moon is Full
TTITLE10=The Bluegills - Bluegills
TTITLE11=Willie Murphy and The Angel-Headed Hipsters - Hustlin' Man Blues
TTITLE12=Lynwood Slim - I Refuse
TTITLE13=Hoopsnakes - The First Man (Who Ever Had The Blues)
TTITLE14=Lamont Cranston (Featuring Teddy  Morgan) - Cold Winds
TTITLE15=Al Rapone - Rock Me
TTITLE16=the Butanes Soul Revue - I Ain't Drunk
EXTD=
EXTT0=
EXTT1=
EXTT2=
EXTT3=
EXTT4=
EXTT5=
EXTT6=
EXTT7=
EXTT8=
EXTT9=
EXTT10=
EXTT11=
EXTT12=
EXTT13=
EXTT14=
EXTT15=
EXTT16=
PLAYORDER=
